<?xml version="1.0" standalone="no"?>
<!DOCTYPE svg PUBLIC "-//W3C//DTD SVG 20010904//EN"
 "http://www.w3.org/TR/2001/REC-SVG-20010904/DTD/svg10.dtd">
<svg version="1.0" xmlns="http://www.w3.org/2000/svg"
 width="200.000000pt" height="100.000000pt" viewBox="0 0 200.000000 100.000000"
 preserveAspectRatio="xMidYMid meet">

<g transform="translate(0.000000,100.000000) scale(0.100000,-0.100000)"
fill="#000000" stroke="none">
<path d="M1180 644 c-11 -12 -10 -18 3 -32 16 -15 18 -15 33 0 19 18 12 48 -9
48 -8 0 -20 -7 -27 -16z"/>
<path d="M430 520 l0 -110 25 0 c23 0 25 4 25 45 0 44 1 45 33 45 48 0 77 24
77 65 0 47 -29 65 -102 65 l-58 0 0 -110z m104 65 c22 -22 9 -45 -25 -45 -26
0 -29 4 -29 30 0 23 5 30 19 30 11 0 26 -7 35 -15z"/>
<path d="M645 578 c-32 -17 -45 -39 -45 -79 0 -56 28 -84 85 -84 56 0 85 28
85 82 0 47 -14 69 -51 82 -39 13 -48 13 -74 -1z m71 -53 c15 -23 15 -27 0 -50
-19 -29 -38 -32 -60 -9 -20 19 -20 34 0 62 20 29 40 28 60 -3z"/>
<path d="M790 460 l0 -130 25 0 c23 0 25 3 25 50 0 49 0 49 25 38 72 -33 136
69 85 135 -26 32 -50 40 -83 28 -17 -7 -28 -7 -32 -1 -4 6 -15 10 -26 10 -18
0 -19 -8 -19 -130z m114 74 c25 -24 20 -63 -9 -76 -19 -8 -28 -8 -40 2 -21 17
-19 67 3 79 23 14 28 14 46 -5z"/>
<path d="M980 460 l0 -130 25 0 c24 0 25 3 25 56 0 55 0 55 22 40 32 -22 55
-20 83 9 29 28 34 88 10 122 -19 27 -59 37 -87 22 -17 -9 -23 -9 -26 0 -2 6
-15 11 -28 11 l-24 0 0 -130z m112 78 c8 -7 18 -20 21 -29 7 -20 -19 -59 -38
-59 -20 0 -45 28 -45 50 0 18 25 50 39 50 4 0 14 -6 23 -12z"/>
<path d="M1180 501 c0 -91 0 -91 25 -91 l26 0 -3 88 c-3 82 -4 87 -25 90 -22
3 -23 1 -23 -87z"/>
<path d="M1250 500 c0 -89 0 -90 25 -90 24 0 25 3 25 60 0 50 3 61 21 70 34
19 49 -4 49 -71 0 -57 1 -59 25 -59 26 0 26 1 23 71 -3 66 -6 74 -31 93 -27
20 -29 20 -58 4 -24 -14 -29 -15 -29 -3 0 9 -10 15 -25 15 -25 0 -25 -1 -25
-90z"/>
<path d="M1470 577 c-18 -9 -25 -21 -25 -42 0 -26 6 -31 43 -45 54 -19 51 -36
-5 -32 -47 3 -55 -9 -21 -32 48 -34 122 -7 116 42 -2 21 -12 30 -46 42 -54 19
-51 36 5 32 36 -3 42 0 37 13 -7 16 -43 35 -67 35 -7 0 -23 -6 -37 -13z"/>
</g>
</svg>
